<?xml version="1.0" encoding="UTF-8" standalone="no"?>
<!-- Created with Inkscape (http://www.inkscape.org/) -->

<svg
   xmlns:dc="http://purl.org/dc/elements/1.1/"
   xmlns:cc="http://creativecommons.org/ns#"
   xmlns:rdf="http://www.w3.org/1999/02/22-rdf-syntax-ns#"
   xmlns:svg="http://www.w3.org/2000/svg"
   xmlns="http://www.w3.org/2000/svg"
   xmlns:sodipodi="http://sodipodi.sourceforge.net/DTD/sodipodi-0.dtd"
   xmlns:inkscape="http://www.inkscape.org/namespaces/inkscape"
   version="1.1"
   id="svg866"
   width="1283.6875"
   height="500"
   viewBox="0 0 1283.6875 500"
   sodipodi:docname="compe-logo-white-text-3-row.svg"
   inkscape:version="0.92.4 (5da689c313, 2019-01-14)">
  <metadata
     id="metadata872">
    <rdf:RDF>
      <cc:Work
         rdf:about="">
        <dc:format>image/svg+xml</dc:format>
        <dc:type
           rdf:resource="http://purl.org/dc/dcmitype/StillImage" />
        <dc:title />
      </cc:Work>
    </rdf:RDF>
  </metadata>
  <defs
     id="defs870" />
  <sodipodi:namedview
     pagecolor="#ffffff"
     bordercolor="#666666"
     borderopacity="1"
     objecttolerance="10"
     gridtolerance="10"
     guidetolerance="10"
     inkscape:pageopacity="0"
     inkscape:pageshadow="2"
     inkscape:window-width="2484"
     inkscape:window-height="1388"
     id="namedview868"
     showgrid="false"
     inkscape:pagecheckerboard="true"
     showborder="false"
     inkscape:zoom="0.69053397"
     inkscape:cx="54.164632"
     inkscape:cy="3.4892585"
     inkscape:window-x="76"
     inkscape:window-y="52"
     inkscape:window-maximized="1"
     inkscape:current-layer="layer2"
     fit-margin-top="0"
     fit-margin-left="0"
     fit-margin-right="0"
     fit-margin-bottom="0" />
  <g
     inkscape:groupmode="layer"
     id="layer2"
     inkscape:label="Layer 2"
     style="display:inline;opacity:1"
     transform="translate(234,468.0957)">
    <path
       style="fill:#ffffff;fill-opacity:1;stroke-width:0;stroke-miterlimit:4;stroke-dasharray:none"
       d="m 16.01553,-468.0957 a 250.00137,249.9918 0 0 0 -250.01553,250 250.00137,249.9918 0 0 0 47.33047,145.846272 l 3.57387,-3.69426 147.67853,-146.994922 v -58.98424 h 0.43498 a 37.789794,37.749907 0 0 1 -20.82169,-33.68309 37.789794,37.749907 0 0 1 37.7898,-37.74991 37.789794,37.749907 0 0 1 37.78979,37.74991 37.789794,37.749907 0 0 1 -22.1269098,34.30399 l -0.99444,72.11597 -161.6631802,163.386331 a 250.00137,249.9918 0 0 0 29.86512,26.449778 l 2.48619,-2.35938 193.05114,-191.357259 a 37.789794,37.749907 0 0 1 -3.66709,-16.08097 37.789794,37.749907 0 0 1 37.78979,-37.7499 37.789794,37.749907 0 0 1 37.7898,37.7499 37.789794,37.749907 0 0 1 -37.7898,37.74991 37.789794,37.749907 0 0 1 -7.33419,-0.71399 l -188.01667,188.7805608 -4.00894,4.00470597 a 250.00137,249.9918 0 0 0 39.0018,17.13647123 l 2.92124,-2.700859 127.13656,-123.991049 a 37.789794,37.749907 0 0 1 -2.89018,-14.46667 37.789794,37.749907 0 0 1 37.78979,-37.7499 37.789794,37.749907 0 0 1 37.7898,37.7499 37.789794,37.749907 0 0 1 -37.7898,37.74991 37.789794,37.749907 0 0 1 -10.37976,-1.459141 L -27.52352,27.837444 A 250.00137,249.9918 0 0 0 16.01553,31.904296 250.00137,249.9918 0 0 0 266,-218.09571 250.00137,249.9918 0 0 0 16.01553,-468.0957 Z"
       id="path945"
       inkscape:connector-curvature="0" />
    <text
       xml:space="preserve"
       style="font-style:normal;font-variant:normal;font-weight:bold;font-stretch:normal;font-size:85.33333588px;line-height:1.25;font-family:'Roboto Slab';-inkscape-font-specification:'Roboto Slab, Bold';font-variant-ligatures:normal;font-variant-caps:normal;font-variant-numeric:normal;font-feature-settings:normal;text-align:start;letter-spacing:0px;word-spacing:0px;writing-mode:lr-tb;text-anchor:start;fill:#ffffff;fill-opacity:1;stroke:none"
       x="307.0625"
       y="-315.07205"
       id="text889"><tspan
         sodipodi:role="line"
         id="tspan887"
         x="307.0625"
         y="-315.07205"
         style="font-style:normal;font-variant:normal;font-weight:bold;font-stretch:normal;font-size:109.33333588px;font-family:Raleway;-inkscape-font-specification:'Raleway, Bold';font-variant-ligatures:normal;font-variant-caps:normal;font-variant-numeric:normal;font-feature-settings:normal;text-align:start;writing-mode:lr-tb;text-anchor:start;fill:#ffffff;fill-opacity:1">COMPUTER </tspan><tspan
         sodipodi:role="line"
         x="307.0625"
         y="-178.40538"
         id="tspan891"
         style="font-style:normal;font-variant:normal;font-weight:bold;font-stretch:normal;font-size:109.33333588px;font-family:Raleway;-inkscape-font-specification:'Raleway, Bold';font-variant-ligatures:normal;font-variant-caps:normal;font-variant-numeric:normal;font-feature-settings:normal;text-align:start;writing-mode:lr-tb;text-anchor:start;fill:#ffffff;fill-opacity:1">ENGINEERING </tspan><tspan
         sodipodi:role="line"
         x="307.0625"
         y="-41.738712"
         id="tspan893"
         style="font-style:normal;font-variant:normal;font-weight:bold;font-stretch:normal;font-size:109.33333588px;font-family:Raleway;-inkscape-font-specification:'Raleway, Bold';font-variant-ligatures:normal;font-variant-caps:normal;font-variant-numeric:normal;font-feature-settings:normal;text-align:start;writing-mode:lr-tb;text-anchor:start;fill:#ffffff;fill-opacity:1">CLUB</tspan></text>
  </g>
</svg>
