<?xml version="1.0" encoding="UTF-8" standalone="no"?>
<!-- Created with Inkscape (http://www.inkscape.org/) -->

<svg
   xmlns:dc="http://purl.org/dc/elements/1.1/"
   xmlns:cc="http://creativecommons.org/ns#"
   xmlns:rdf="http://www.w3.org/1999/02/22-rdf-syntax-ns#"
   xmlns:svg="http://www.w3.org/2000/svg"
   xmlns="http://www.w3.org/2000/svg"
   xmlns:sodipodi="http://sodipodi.sourceforge.net/DTD/sodipodi-0.dtd"
   xmlns:inkscape="http://www.inkscape.org/namespaces/inkscape"
   version="1.1"
   id="svg866"
   width="32"
   height="32"
   viewBox="0 0 32 32"
   sodipodi:docname="compe-logo-white.svg"
   inkscape:version="0.92.4 (5da689c313, 2019-01-14)">
  <metadata
     id="metadata872">
    <rdf:RDF>
      <cc:Work
         rdf:about="">
        <dc:format>image/svg+xml</dc:format>
        <dc:type
           rdf:resource="http://purl.org/dc/dcmitype/StillImage" />
        <dc:title />
      </cc:Work>
    </rdf:RDF>
  </metadata>
  <defs
     id="defs870" />
  <sodipodi:namedview
     pagecolor="#ffffff"
     bordercolor="#666666"
     borderopacity="1"
     objecttolerance="10"
     gridtolerance="10"
     guidetolerance="10"
     inkscape:pageopacity="0"
     inkscape:pageshadow="2"
     inkscape:window-width="2484"
     inkscape:window-height="1388"
     id="namedview868"
     showgrid="false"
     inkscape:pagecheckerboard="true"
     showborder="false"
     inkscape:zoom="31.25"
     inkscape:cx="16"
     inkscape:cy="16"
     inkscape:window-x="76"
     inkscape:window-y="52"
     inkscape:window-maximized="1"
     inkscape:current-layer="layer2" />
  <g
     inkscape:groupmode="layer"
     id="layer2"
     inkscape:label="Layer 2"
     style="display:inline;opacity:1">
    <path
       style="fill:#ffffff;fill-opacity:1;stroke-width:0;stroke-miterlimit:4;stroke-dasharray:none"
       d="M 15.981836,0.45429703 A 15.725086,15.724484 0 0 0 0.25585938,16.179297 15.725086,15.724484 0 0 0 3.2329462,25.353027 l 0.2247964,-0.232369 9.2889794,-9.24598 v -3.710109 h 0.02736 a 2.376978,2.3744691 0 0 1 -1.309684,-2.118666 2.376978,2.3744691 0 0 1 2.376978,-2.3744696 2.376978,2.3744691 0 0 1 2.376978,2.3744696 2.376978,2.3744691 0 0 1 -1.391783,2.157721 l -0.06255,4.536094 -10.1686139,10.277 a 15.725086,15.724484 0 0 0 1.8785163,1.663691 L 6.6303045,28.532004 18.773221,16.495633 a 2.376978,2.3744691 0 0 1 -0.23066,-1.011493 2.376978,2.3744691 0 0 1 2.376978,-2.374469 2.376978,2.3744691 0 0 1 2.376978,2.374469 2.376978,2.3744691 0 0 1 -2.376978,2.374469 2.376978,2.3744691 0 0 1 -0.461321,-0.04491 L 8.6319702,29.687996 8.3798073,29.939892 a 15.725086,15.724484 0 0 0 2.4532137,1.077884 l 0.183746,-0.169884 7.996889,-7.799037 a 2.376978,2.3744691 0 0 1 -0.181792,-0.909953 2.376978,2.3744691 0 0 1 2.376978,-2.374469 2.376978,2.3744691 0 0 1 2.376978,2.374469 2.376978,2.3744691 0 0 1 -2.376978,2.374469 2.376978,2.3744691 0 0 1 -0.652887,-0.09178 l -7.312725,7.2269 a 15.725086,15.724484 0 0 0 2.738606,0.255805 15.725086,15.724484 0 0 0 15.724023,-15.725 A 15.725086,15.724484 0 0 0 15.981836,0.45429703 Z"
       id="path945"
       inkscape:connector-curvature="0" />
  </g>
</svg>
